<svg xmlns="http://www.w3.org/2000/svg" xmlns:xlink="http://www.w3.org/1999/xlink" width="500" zoomAndPan="magnify" viewBox="0 0 375 374.999991" height="500" preserveAspectRatio="xMidYMid meet" version="1.0"><defs><clipPath id="912f25e609"><path d="M 10.253906 124 L 365 124 L 365 282 L 10.253906 282 Z M 10.253906 124 " clip-rule="nonzero"/></clipPath><clipPath id="c5ead7384e"><path d="M 10.253906 122.664062 L 365.003906 122.664062 L 365.003906 283.914062 L 10.253906 283.914062 Z M 10.253906 122.664062 " clip-rule="nonzero"/></clipPath></defs><g clip-path="url(#912f25e609)"><path fill="#080206" d="M 180 134.523438 L 186.1875 128.308594 L 175.980469 124.257812 L 169.042969 126.078125 L 163.359375 131.164062 L 163.296875 131.070312 L 162.257812 132.953125 L 151.960938 138.921875 L 150.328125 144.195312 L 154.878906 142.75 L 170.988281 144.570312 L 163.828125 156.253906 L 133.496094 151.824219 L 10.753906 133.957031 L 40.742188 157.226562 L 69.945312 160.929688 L 99.648438 164.730469 L 69.945312 168.5 L 57.320312 170.070312 L 67.054688 177.636719 L 72.488281 181.84375 L 96.382812 184.511719 L 120.402344 187.179688 L 96.382812 189.882812 L 84.230469 190.949219 L 98.832031 202.253906 L 117.105469 204.828125 L 136.101562 207.496094 L 108.628906 209.851562 L 123.386719 221.28125 L 156.011719 228.316406 L 162.636719 221.878906 L 158.898438 246.652344 L 169.167969 254.722656 L 173.125 263.359375 L 185.402344 281.914062 L 197.710938 263.359375 L 201.667969 254.722656 L 211.902344 246.652344 L 208.164062 221.785156 L 207.507812 220.652344 L 214.257812 228.316406 L 251.371094 220.875 L 266.035156 209.476562 L 238.214844 207.121094 L 257.210938 204.453125 L 275.925781 201.8125 L 289.898438 190.980469 L 277.9375 189.882812 L 253.914062 187.179688 L 301.675781 181.875 L 307.671875 177.195312 L 316.871094 170.070312 L 304.375 168.5 L 274.671875 164.730469 L 304.375 160.929688 L 333.421875 157.257812 L 364.003906 133.550781 L 241.261719 151.386719 L 203.550781 156.878906 L 194.351562 140.519531 L 186.40625 128.339844 L 179.78125 134.902344 L 180 134.523438 " fill-opacity="1" fill-rule="nonzero"/></g><g clip-path="url(#c5ead7384e)"><path stroke-linecap="butt" transform="matrix(0.803837, 0, 0, -0.803837, 10.252509, 282.164981)" fill="none" stroke-linejoin="miter" d="M 211.171497 183.670968 L 218.868952 191.402439 L 206.171067 196.441745 L 197.540588 194.177216 L 190.470009 187.850142 L 190.392257 187.96677 L 189.099629 185.624489 L 176.289975 178.199166 L 174.258703 171.638835 L 179.920025 173.436852 L 199.960621 171.172323 L 191.05315 156.637546 L 153.319099 162.148223 L 0.623754 184.375596 L 37.930169 155.427529 L 74.259823 150.820719 L 111.211494 146.092421 L 74.259823 141.403 L 58.553905 139.449479 L 70.66379 130.036619 L 77.42336 124.802933 L 107.148948 121.483891 L 137.03004 118.16485 L 107.148948 114.802073 L 92.03103 113.475428 L 110.195857 99.412023 L 132.928619 96.209609 L 156.560388 92.890568 L 122.383494 89.960287 L 140.742701 75.741377 L 181.329281 66.98941 L 189.571001 74.997873 L 184.920455 44.178897 L 197.696092 34.139161 L 202.61877 23.394797 L 217.892192 0.312152 L 233.20449 23.394797 L 238.127168 34.139161 L 250.859069 44.178897 L 246.208523 75.114501 L 245.392127 76.523758 L 253.78935 66.98941 L 299.959501 76.246766 L 318.20208 90.426799 L 283.59269 93.35708 L 307.224459 96.676122 L 330.506345 99.961147 L 347.888792 113.436552 L 333.008989 114.802073 L 303.123038 118.16485 L 362.540197 124.764057 L 369.999536 130.585743 L 381.443669 139.449479 L 365.898114 141.403 L 328.946444 146.092421 L 365.898114 150.820719 L 402.033388 155.388653 L 440.078448 184.880985 L 287.383103 162.692488 L 240.469449 155.860025 L 229.025316 176.211629 L 219.141084 191.363563 L 210.899365 183.199596 Z M 211.171497 183.670968 " stroke="#040606" stroke-width="0.34" stroke-opacity="1" stroke-miterlimit="10"/></g></svg>