<svg xmlns="http://www.w3.org/2000/svg" xmlns:xlink="http://www.w3.org/1999/xlink" width="500" zoomAndPan="magnify" viewBox="0 0 375 374.999991" height="500" preserveAspectRatio="xMidYMid meet" version="1.0"><defs><g/></defs><g fill="#ffffff" fill-opacity="1"><g transform="translate(40.990931, 224.689651)"><g><path d="M 57.765625 -55.015625 L 44.5625 -55.015625 C 43.046875 -55.015625 41.671875 -54.464844 40.574219 -53.363281 L 20.21875 -33.007812 L 13.753906 -33.007812 L 13.753906 -55.015625 L 2.75 -55.015625 L 2.75 0 L 13.753906 0 L 13.753906 -22.003906 L 20.21875 -22.003906 L 40.574219 -1.652344 C 41.671875 -0.550781 43.046875 0 44.5625 0 L 57.765625 0 L 57.765625 -11.003906 L 46.761719 -11.003906 L 30.257812 -27.507812 L 46.761719 -44.011719 L 57.765625 -44.011719 Z M 57.765625 -55.015625 "/></g></g></g><g fill="#ffffff" fill-opacity="1"><g transform="translate(118.490195, 224.689651)"><g><path d="M 57.765625 -55.015625 L 13.753906 -55.015625 C 7.703125 -55.015625 2.75 -50.0625 2.75 -44.011719 L 2.75 -33.007812 C 2.75 -26.957031 7.703125 -22.003906 13.753906 -22.003906 L 46.761719 -22.003906 L 46.761719 -11.003906 L 2.75 -11.003906 L 2.75 0 L 46.761719 0 C 52.8125 0 57.765625 -4.953125 57.765625 -11.003906 L 57.765625 -22.003906 C 57.765625 -28.058594 52.8125 -33.007812 46.761719 -33.007812 L 13.753906 -33.007812 L 13.753906 -44.011719 L 57.765625 -44.011719 Z M 57.765625 -55.015625 "/></g></g></g><g fill="#ffffff" fill-opacity="1"><g transform="translate(195.989459, 224.689651)"><g><path d="M 57.765625 -55.015625 L 13.753906 -55.015625 C 7.703125 -55.015625 2.75 -50.0625 2.75 -44.011719 L 2.75 -11.003906 C 2.75 -4.953125 7.703125 0 13.753906 0 L 57.765625 0 L 57.765625 -11.003906 L 13.753906 -11.003906 L 13.753906 -22.003906 L 57.765625 -22.003906 L 57.765625 -33.007812 L 13.753906 -33.007812 L 13.753906 -44.011719 L 57.765625 -44.011719 Z M 57.765625 -55.015625 "/></g></g></g><g fill="#ffffff" fill-opacity="1"><g transform="translate(273.488723, 224.689651)"><g><path d="M 57.765625 0 L 57.765625 -11.003906 L 13.753906 -11.003906 L 13.753906 -44.011719 L 57.765625 -44.011719 L 57.765625 -55.015625 L 13.753906 -55.015625 C 7.703125 -55.015625 2.75 -50.0625 2.75 -44.011719 L 2.75 -11.003906 C 2.75 -4.953125 7.703125 0 13.753906 0 Z M 57.765625 0 "/></g></g></g></svg>